<svg width="448" height="512" xmlns="http://www.w3.org/2000/svg" xmlns:xlink="http://www.w3.org/1999/xlink" overflow="hidden"><defs><clipPath id="clip0"><rect x="680" y="44" width="448" height="512"/></clipPath></defs><g clip-path="url(#clip0)" transform="translate(-680 -44)"><path d="M904.1 185C840.5 185 789.2 236.3 789.2 299.9 789.2 363.5 840.5 414.8 904.1 414.8 967.7 414.8 1019 363.5 1019 299.9 1019 236.3 967.7 185 904.1 185ZM904.1 374.6C863 374.6 829.4 341.1 829.4 299.9 829.4 258.7 862.9 225.2 904.1 225.2 945.3 225.2 978.8 258.7 978.8 299.9 978.8 341.1 945.2 374.6 904.1 374.6ZM1050.5 180.3C1050.5 195.2 1038.5 207.1 1023.7 207.1 1008.8 207.1 996.9 195.1 996.9 180.3 996.9 165.5 1008.9 153.5 1023.7 153.5 1038.5 153.5 1050.5 165.5 1050.5 180.3ZM1126.6 207.5C1124.9 171.6 1116.7 139.8 1090.4 113.6 1064.2 87.4 1032.4 79.2 996.5 77.4 959.5 75.3 848.6 75.3 811.6 77.4 775.8 79.1 744 87.3 717.7 113.5 691.4 139.7 683.3 171.5 681.5 207.4 679.4 244.4 679.4 355.3 681.5 392.3 683.2 428.2 691.4 460 717.7 486.2 744 512.4 775.7 520.6 811.6 522.4 848.6 524.5 959.5 524.5 996.5 522.4 1032.4 520.7 1064.2 512.5 1090.4 486.2 1116.6 460 1124.8 428.2 1126.6 392.3 1128.7 355.3 1128.7 244.5 1126.6 207.5ZM1078.8 432C1071 451.6 1055.9 466.7 1036.2 474.6 1006.7 486.3 936.7 483.6 904.1 483.6 871.5 483.6 801.4 486.2 772 474.6 752.4 466.8 737.3 451.7 729.4 432 717.7 402.5 720.4 332.5 720.4 299.9 720.4 267.3 717.8 197.2 729.4 167.8 737.2 148.2 752.3 133.1 772 125.2 801.5 113.5 871.5 116.2 904.1 116.2 936.7 116.2 1006.8 113.6 1036.2 125.2 1055.8 133 1070.9 148.1 1078.8 167.8 1090.5 197.3 1087.8 267.3 1087.8 299.9 1087.8 332.5 1090.5 402.6 1078.8 432Z" stroke="#FFFFFF" stroke-width="12.6667" fill="#FFFFFF"/></g></svg>