<svg width="512" height="512" xmlns="http://www.w3.org/2000/svg" xmlns:xlink="http://www.w3.org/1999/xlink" overflow="hidden"><defs><clipPath id="clip0"><rect x="384" y="104" width="512" height="512"/></clipPath></defs><g clip-path="url(#clip0)" transform="translate(-384 -104)"><path d="M843.37 255.716C843.695 260.264 843.695 264.813 843.695 269.361 843.695 408.081 738.112 567.919 545.137 567.919 485.685 567.919 430.457 550.7 384 520.813 392.447 521.787 400.568 522.112 409.34 522.112 458.395 522.112 503.553 505.544 539.614 477.28 493.482 476.305 454.822 446.092 441.502 404.508 448 405.482 454.497 406.132 461.32 406.132 470.741 406.132 480.163 404.832 488.934 402.559 440.853 392.812 404.791 350.579 404.791 299.574L404.791 298.275C418.76 306.072 435.005 310.945 452.222 311.594 423.958 292.751 405.441 260.589 405.441 224.203 405.441 204.711 410.638 186.843 419.735 171.249 471.39 234.924 549.035 276.507 636.1 281.056 634.476 273.259 633.501 265.138 633.501 257.016 633.501 199.188 680.283 152.082 738.435 152.082 768.648 152.082 795.937 164.752 815.105 185.219 838.82 180.671 861.561 171.899 881.704 159.879 873.906 184.245 857.338 204.712 835.572 217.706 856.689 215.433 877.156 209.584 895.998 201.463 881.706 222.254 863.837 240.771 843.37 255.716Z" fill="#FFFFFF"/></g></svg>