<svg width="576" height="512" xmlns="http://www.w3.org/2000/svg" xmlns:xlink="http://www.w3.org/1999/xlink" overflow="hidden"><defs><clipPath id="clip0"><rect x="352" y="104" width="576" height="512"/></clipPath></defs><g clip-path="url(#clip0)" transform="translate(-352 -104)"><path d="M901.655 228.083C895.374 204.433 876.868 185.807 853.371 179.486 810.781 168 640 168 640 168 640 168 469.22 168 426.629 179.486 403.132 185.808 384.626 204.433 378.345 228.083 366.933 270.95 366.933 360.388 366.933 360.388 366.933 360.388 366.933 449.826 378.345 492.693 384.626 516.343 403.132 534.193 426.629 540.514 469.22 552 640 552 640 552 640 552 810.78 552 853.371 540.514 876.868 534.193 895.374 516.343 901.655 492.693 913.067 449.826 913.067 360.388 913.067 360.388 913.067 360.388 913.067 270.95 901.655 228.083ZM584.145 441.591 584.145 279.185 726.884 360.39 584.145 441.591Z" fill="#FFFFFF"/></g></svg>